# xmcd
# 
# Track frame offsets:
#     150
#     14152
#     29650
#     41475
#     56192
#     70922
#     84290
#     113567
#     127892
#     146655
#     161390
#     175862
#     187975
#     200667
#     213012
#     226230
#     240537
#     253632
#     267112
#     288290
#     314485
# 
# Disc length: 4390
# 
# Revision: 11
# Processed by: cddbd v1.5.2PL0 Copyright (c) Steve Scherf et al.
# Submitted via: fre:ac v1.0.31
# 
DISCID=27112415
DTITLE=Ken Burns Jazz - Ken Burns Jazz Duke Ellington
DYEAR=2000
DGENRE=Jazz
TTITLE0=East St. Louis Toodle-oo
TTITLE1=Black and Tan Fantasy
TTITLE2=Take It Easy
TTITLE3=The Mooche
TTITLE4=Rockin' in Rhythm
TTITLE5=Mood Indigo
TTITLE6=Creole Rhapsody
TTITLE7=It Don't Mean a Thing (If It Ain't Got That Swing)
TTITLE8=Creole Love Call
TTITLE9=Sophisticated Lady
TTITLE10=Solitude
TTITLE11=Caravan
TTITLE12=Back Room Romp
TTITLE13=Ko-Ko
TTITLE14=Never No Lament (AKA 'Don't Get Around Much More'´)
TTITLE15=Cotton Tail
TTITLE16=Take the 'A' Train
TTITLE17=Satin Doll
TTITLE18=Jeep's Blues (Live)
TTITLE19=Come Sunday (from Black, Brown and Beige)
TTITLE20=Black Beauty
EXTD=YEAR: 2000
EXTT0=
EXTT1=
EXTT2=
EXTT3=
EXTT4=
EXTT5=
EXTT6=
EXTT7=
EXTT8=
EXTT9=
EXTT10=
EXTT11=
EXTT12=
EXTT13=
EXTT14=
EXTT15=
EXTT16=
EXTT17=
EXTT18=
EXTT19=
EXTT20=
PLAYORDER=
